#N canvas 2395 146 1334 658 12;
#X obj 206 415 freeverb~;
#X obj 66 75 adc~;
#X obj 120 173 mydelay;
#X msg 233 271 bypass \$1;
#X msg 420 283 damping \$1;
#X msg 521 283 wet \$1;
#X msg 619 320 dry \$1;
#X obj 609 282 expr 1-$f1;
#X obj 205 556 outlet~;
#X obj 182 92 inlet;
#X obj 426 199 inlet;
#X obj 235 197 inlet;
#X obj 518 201 inlet;
#X obj 332 191 inlet;
#X msg 326 275 roomsize \$1;
#X obj 140 503 *~ 1;
#X obj 19 34 inlet;
#X connect 0 0 15 0;
#X connect 1 0 2 0;
#X connect 2 0 0 0;
#X connect 2 0 0 1;
#X connect 3 0 0 0;
#X connect 4 0 0 0;
#X connect 5 0 0 0;
#X connect 6 0 0 0;
#X connect 7 0 6 0;
#X connect 9 0 2 1;
#X connect 10 0 4 0;
#X connect 11 0 3 0;
#X connect 12 0 5 0;
#X connect 12 0 7 0;
#X connect 13 0 14 0;
#X connect 13 0 0 0;
#X connect 14 0 0 0;
#X connect 15 0 8 0;
#X connect 16 0 15 1;
