#N canvas 2420 263 635 479 12;
#X obj 216 183 comport;
#X msg 238 138 devices;
#X msg 360 138 close;
#X obj 216 256 unpackOSC;
#X obj 216 223 slipdec;
#X msg 133 125 baud 115200;
#X obj 219 82 loadbang;
#X obj 344 83 closebang;
#X obj 226 317 outlet;
#X obj 440 77 inlet;
#X obj 31 29 import mrpeach/slipdec mrpeach/unpackOSC;
#X obj 168 79 inlet;
#X msg 302 138 open 4;
#X connect 0 0 4 0;
#X connect 1 0 0 0;
#X connect 2 0 0 0;
#X connect 3 0 8 0;
#X connect 4 0 3 0;
#X connect 5 0 0 0;
#X connect 6 0 5 0;
#X connect 6 0 1 0;
#X connect 6 0 12 0;
#X connect 7 0 2 0;
#X connect 9 0 2 0;
#X connect 11 0 5 0;
#X connect 11 0 1 0;
#X connect 11 0 12 0;
#X connect 12 0 0 0;
