#N canvas 1 35 1918 995 12;
#X obj 247 342 routeOSC /botao/0;
#X floatatom 248 470 5 0 0 0 - - -, f 5;
#X obj 94 339 routeOSC /pot/0;
#X floatatom 86 472 5 0 0 0 - - -, f 5;
#X obj 802 977 output~;
#X obj 105 544 osc~ 400;
#X floatatom 43 572 5 0 0 0 - - -, f 5;
#X obj 266 537 line;
#X floatatom 276 583 5 0 0 0 - - -, f 5;
#X msg 266 508 \$1 20;
#X floatatom 614 480 5 0 0 0 - - -, f 5;
#X floatatom 452 482 5 0 0 0 - - -, f 5;
#X obj 471 554 osc~ 400;
#X floatatom 409 582 5 0 0 0 - - -, f 5;
#X obj 632 547 line;
#X floatatom 632 576 5 0 0 0 - - -, f 5;
#X msg 632 518 \$1 20;
#X obj 460 349 routeOSC /pot/1;
#X obj 613 352 routeOSC /botao/1;
#X floatatom 994 484 5 0 0 0 - - -, f 5;
#X floatatom 832 486 5 0 0 0 - - -, f 5;
#X obj 851 558 osc~ 400;
#X floatatom 789 586 5 0 0 0 - - -, f 5;
#X obj 1012 551 line;
#X floatatom 1012 580 5 0 0 0 - - -, f 5;
#X msg 1012 522 \$1 20;
#X obj 840 353 routeOSC /pot/2;
#X obj 993 356 routeOSC /botao/2;
#X floatatom 1323 497 5 0 0 0 - - -, f 5;
#X floatatom 1161 499 5 0 0 0 - - -, f 5;
#X obj 1180 571 osc~ 400;
#X floatatom 1118 599 5 0 0 0 - - -, f 5;
#X obj 1341 564 line;
#X floatatom 1341 593 5 0 0 0 - - -, f 5;
#X msg 1341 535 \$1 20;
#X obj 1169 366 routeOSC /pot/3;
#X obj 1322 369 routeOSC /botao/3;
#X floatatom 1676 493 5 0 0 0 - - -, f 5;
#X floatatom 1514 495 5 0 0 0 - - -, f 5;
#X obj 1533 567 osc~ 400;
#X floatatom 1471 595 5 0 0 0 - - -, f 5;
#X obj 1694 560 line;
#X floatatom 1694 589 5 0 0 0 - - -, f 5;
#X msg 1694 531 \$1 20;
#X obj 1522 362 routeOSC /pot/4;
#X obj 1675 365 routeOSC /botao/4;
#X obj 428 758 *~ 1;
#X obj 553 713 *~ 1;
#X obj 870 725 *~ 1;
#X obj 1099 726 *~ 1;
#X obj 1390 725 *~ 1;
#X obj 917 152 OSCSerial;
#X obj 111 52 import mrpeach/routeOSC;
#X obj 908 101 bng 15 250 50 0 empty empty empty 17 7 0 10 -262144
-1 -1;
#X obj 59 507 + 196;
#X obj 95 441 - 22;
#X obj 90 412 * 47;
#X obj 425 517 + 220;
#X obj 805 521 + 247;
#X obj 836 426 * 57;
#X obj 841 455 - 27;
#X obj 1134 534 + 277;
#X obj 1165 439 * 64;
#X obj 1170 468 - 30;
#X obj 1487 530 + 311;
#X obj 1518 435 * 72;
#X obj 1523 464 - 34;
#X obj 1486 939 mic;
#X obj 806 930 *~ 0.5;
#X obj 1465 768 hsl 128 15 0 1000 0 0 empty empty empty -2 -8 0 10
-262144 -1 -1 12700 1;
#X obj 1555 857 hsl 128 15 0 1 0 0 empty empty empty -2 -8 0 10 -262144
-1 -1 0 1;
#X obj 1569 889 hsl 128 15 0 1 0 0 empty empty empty -2 -8 0 10 -262144
-1 -1 0 1;
#X obj 1532 794 tgl 16 0 empty empty empty 17 7 0 10 -262144 -1 -1
0 1;
#X obj 92 382 / 1023;
#X obj 458 392 / 1023;
#X obj 838 396 / 1023;
#X obj 1167 409 / 1023;
#X obj 1520 405 / 1023;
#X obj 461 451 - 23;
#X obj 456 422 * 52;
#X text 1476 704 Efeitos para o microfone;
#X obj 1539 826 hsl 128 15 0 1 0 0 empty empty empty -2 -8 0 10 -262144
-1 -1 0 1;
#X text 1554 792 bypass do reverb (toggle = sem reverb);
#X text 1681 824 roomsize;
#X text 1700 852 damping;
#X text 1714 886 dry/wet (0 - dry \, 1 - wet);
#X text 936 99 bot達o para fechar a conex達o com o arduino;
#X obj 856 59 bng 15 250 50 0 empty empty empty 17 7 0 10 -262144 -1
-1;
#X text 884 57 bot達o para abrir a conex達o com o arduino;
#X obj 1445 744 tgl 15 0 empty empty empty 17 7 0 10 -262144 -1 -1
1 1;
#X text 1466 737 Liga/desliga;
#X text 1601 767 delay (0 a 1000ms);
#X connect 0 0 1 0;
#X connect 1 0 9 0;
#X connect 2 0 73 0;
#X connect 3 0 54 0;
#X connect 5 0 46 0;
#X connect 7 0 8 0;
#X connect 8 0 46 1;
#X connect 9 0 7 0;
#X connect 10 0 16 0;
#X connect 11 0 57 0;
#X connect 12 0 47 0;
#X connect 14 0 15 0;
#X connect 15 0 47 1;
#X connect 16 0 14 0;
#X connect 17 0 74 0;
#X connect 18 0 10 0;
#X connect 19 0 25 0;
#X connect 20 0 58 0;
#X connect 21 0 48 0;
#X connect 23 0 24 0;
#X connect 24 0 48 1;
#X connect 25 0 23 0;
#X connect 26 0 75 0;
#X connect 27 0 19 0;
#X connect 28 0 34 0;
#X connect 29 0 61 0;
#X connect 30 0 49 0;
#X connect 32 0 33 0;
#X connect 33 0 49 1;
#X connect 34 0 32 0;
#X connect 35 0 76 0;
#X connect 36 0 28 0;
#X connect 37 0 43 0;
#X connect 38 0 64 0;
#X connect 39 0 50 0;
#X connect 41 0 42 0;
#X connect 42 0 50 1;
#X connect 43 0 41 0;
#X connect 44 0 77 0;
#X connect 45 0 37 0;
#X connect 46 0 68 0;
#X connect 47 0 68 0;
#X connect 48 0 68 0;
#X connect 49 0 68 0;
#X connect 50 0 68 0;
#X connect 51 0 2 0;
#X connect 51 0 0 0;
#X connect 51 0 17 0;
#X connect 51 0 18 0;
#X connect 51 0 26 0;
#X connect 51 0 27 0;
#X connect 51 0 35 0;
#X connect 51 0 36 0;
#X connect 51 0 44 0;
#X connect 51 0 45 0;
#X connect 53 0 51 1;
#X connect 54 0 5 0;
#X connect 54 0 6 0;
#X connect 55 0 3 0;
#X connect 56 0 55 0;
#X connect 57 0 12 0;
#X connect 57 0 13 0;
#X connect 58 0 21 0;
#X connect 58 0 22 0;
#X connect 59 0 60 0;
#X connect 60 0 20 0;
#X connect 61 0 30 0;
#X connect 61 0 31 0;
#X connect 62 0 63 0;
#X connect 63 0 29 0;
#X connect 64 0 39 0;
#X connect 64 0 40 0;
#X connect 65 0 66 0;
#X connect 66 0 38 0;
#X connect 67 0 68 0;
#X connect 68 0 4 0;
#X connect 68 0 4 1;
#X connect 69 0 67 1;
#X connect 70 0 67 4;
#X connect 71 0 67 5;
#X connect 72 0 67 2;
#X connect 73 0 56 0;
#X connect 74 0 79 0;
#X connect 75 0 59 0;
#X connect 76 0 62 0;
#X connect 77 0 65 0;
#X connect 78 0 11 0;
#X connect 79 0 78 0;
#X connect 81 0 67 3;
#X connect 87 0 51 0;
#X connect 89 0 67 0;
